# xmcd CD database file
#
# Track frame offsets:
#	150
#	23999
#	36605
#	59841
#	78545
#	97937
#	114042
#	138825
#
# Disc length: 2025 seconds
#
# Revision: 11
# Processed by: cddbd v1.5.2PL0 Copyright (c) Steve Scherf et al.
# Submitted via: CDex 1.70beta2
#
DISCID=6607e708
DTITLE=Stan Getz and João Gilberto - Getz-Gilberto
DYEAR=1964
DGENRE=Bossa Nova
TTITLE0=The Girl From Ipanema
TTITLE1=Doralice
TTITLE2=Para Machucar Meu Coraçao
TTITLE3=Desafinado (Off Key)
TTITLE4=Corcovado (Quiet Nights Of Quiet Stars)
TTITLE5=So Danço Samba
TTITLE6=O Grande Amor
TTITLE7=Vivo Sohando (Dreamer)
EXTD=Stan Getz - Tenor sax\nJoão Gilberto - Guitar, vocal\nAntonio Carlos Jobim - Piano\nAstrud Gilberto - Vocal\nTommy Williams - Bass\nMilton Banana - Drums\nRecorded March 18 and 19, 1963 in New York City\nOriginally released as Verve V6-8545 (1963]\nCD
EXTD=: Verve 0602517679221, 2008 YEAR: 1964
EXTT0=
EXTT1=
EXTT2=
EXTT3=
EXTT4=
EXTT5=
EXTT6=
EXTT7=
PLAYORDER=
